<?xml version="1.0" encoding="UTF-8"?>
<svg width="120px" height="120px" viewBox="0 0 120 120" version="1.1" xmlns="http://www.w3.org/2000/svg" xmlns:xlink="http://www.w3.org/1999/xlink">
    <!-- Generator: Sketch 62 (91390) - https://sketch.com -->
    <title>Artboard Copy 3</title>
    <desc>Created with Sketch.</desc>
    <g id="Artboard-Copy-3" stroke="none" stroke-width="1" fill="none" fill-rule="evenodd">
        <g id="Group-2">
            <g id="Group" transform="translate(10.000000, 28.000000)" fill-rule="nonzero">
                <path d="M98.9830508,58.7570621 C98.9830508,61.1299435 97.0621469,62.9378531 94.8022599,62.9378531 L4.18079096,62.9378531 C1.92090395,63.0508475 2.36847579e-14,61.1299435 2.36847579e-14,58.7570621 L2.36847579e-14,4.18079096 C2.36847579e-14,1.92090395 1.92090395,1.57898386e-14 4.18079096,1.57898386e-14 L94.6892655,1.57898386e-14 C97.0621469,1.57898386e-14 98.8700565,1.92090395 98.8700565,4.18079096 L98.8700565,58.7570621 L98.9830508,58.7570621 Z" id="Path" fill="#00BAFF"></path>
                <path d="M98.079096,1.5819209 C86.3276836,19.7740113 68.1355932,36.4971751 49.3785311,36.0451977 C42.4858757,35.9322034 34.5762712,33.8983051 27.9096045,28.4745763 C22.9378531,24.4067797 17.9661017,18.079096 16.0451977,9.03954802 C15.2542373,9.03954802 14.6892655,9.03954802 14.0112994,9.03954802 C10.960452,9.03954802 9.15254237,11.7514124 9.49152542,14.2372881 C9.60451977,14.8022599 9.71751412,15.480226 9.83050847,16.1581921 C11.299435,24.9717514 16.4971751,34.9152542 25.1977401,41.3559322 C31.9774011,46.3276836 40.3389831,49.6045198 49.4915254,49.6045198 C65.9887006,49.6045198 83.6158192,39.0960452 98.9830508,12.0903955 L98.9830508,4.18079096 C98.9830508,3.27683616 98.6440678,2.25988701 98.079096,1.5819209 Z" id="Path" fill="#FFFFFF"></path>
            </g>
            <rect id="Rectangle" x="0" y="0" width="120" height="120"></rect>
        </g>
        <g id="mailchimp" transform="translate(-94.000000, -63.000000)">
            <rect id="Rectangle" x="0" y="0" width="120" height="120"></rect>
        </g>
    </g>
</svg>