<?xml version="1.0" encoding="UTF-8"?>
<svg width="612px" height="120px" viewBox="0 0 612 120" version="1.1" xmlns="http://www.w3.org/2000/svg" xmlns:xlink="http://www.w3.org/1999/xlink">
    <!-- Generator: Sketch 62 (91390) - https://sketch.com -->
    <title>dark</title>
    <desc>Created with Sketch.</desc>
    <defs>
        <linearGradient x1="50%" y1="50%" x2="13.8011969%" y2="82.2409519%" id="linearGradient-1">
            <stop stop-color="#5169F4" offset="0%"></stop>
            <stop stop-color="#2838E5" offset="100%"></stop>
        </linearGradient>
        <linearGradient x1="61.264532%" y1="28.671627%" x2="50%" y2="64.2946952%" id="linearGradient-2">
            <stop stop-color="#2339BB" offset="0%"></stop>
            <stop stop-color="#3340D1" offset="100%"></stop>
        </linearGradient>
        <linearGradient x1="31.7730374%" y1="65.4437666%" x2="87.6839163%" y2="17.7595025%" id="linearGradient-3">
            <stop stop-color="#253BBD" offset="0%"></stop>
            <stop stop-color="#5D8BFF" offset="100%"></stop>
        </linearGradient>
    </defs>
    <g id="dark" stroke="none" stroke-width="1" fill="none" fill-rule="evenodd">
        <g id="Group-2-Copy" transform="translate(10.000000, 10.000000)">
            <g id="Group">
                <path d="M83.0708031,87.9796908 L83.0097629,88.0311564 C82.8780422,88.1429537 82.7457335,88.2540874 82.6128422,88.3645524 C82.5746251,88.3967119 82.5362199,88.4285377 82.4977662,88.4603077 C82.3805695,88.5567546 82.263018,88.6529925 82.145021,88.7487091 C81.8634648,88.9774466 81.5795628,89.2027043 81.2931771,89.4249499 C80.9937431,89.6570186 80.6918111,89.885949 80.387222,90.1115362 L80.3529518,90.137165 C80.3078001,90.1705445 80.2625903,90.2038506 80.2173223,90.2370831 C80.1154842,90.3115835 80.014102,90.3854331 79.9124322,90.4589137 C79.82676,90.5210802 79.7404214,90.5830641 79.6538776,90.6447821 C79.579121,90.697858 79.5041407,90.7510245 79.4290076,90.8039914 C79.3426104,90.8651266 79.2558405,90.9258864 79.1688693,90.98638 C79.044347,91.0727754 78.9198032,91.1585781 78.7948525,91.2438349 C78.6862014,91.3181728 78.5771827,91.3919319 78.4678584,91.4652756 C78.3716786,91.5296104 78.2749392,91.594032 78.1779631,91.6581283 C78.1077444,91.7047214 78.0377485,91.7507321 77.9676303,91.7965734 C77.6308955,92.0165522 77.2914305,92.232746 76.9492128,92.4449691 C76.8789268,92.4887035 76.8083702,92.5322164 76.7376976,92.5755606 C76.6131694,92.651794 76.4885075,92.7275102 76.3634896,92.8027011 C76.3318579,92.8218587 76.3001533,92.840879 76.2684259,92.8598654 C76.1203362,92.9483586 75.9716918,93.0362808 75.8225553,93.1234613 C75.7195289,93.1838061 75.616266,93.2436768 75.51277,93.3031919 C75.3975754,93.369322 75.2822294,93.4350482 75.1665975,93.5003325 C75.0932739,93.5418359 75.0197018,93.5831292 74.946015,93.6242435 C74.3995014,93.9290837 73.8467321,94.2241561 73.2878946,94.5091475 C73.2420612,94.5325946 73.1964271,94.5557781 73.1507528,94.5788942 C73.0232528,94.6433535 72.8951742,94.7074925 72.7667835,94.7711025 C72.6845044,94.8119328 72.6020991,94.8524779 72.5195665,94.8928051 C72.39704,94.9526108 72.2745429,95.0118514 72.1517688,95.0706115 C72.0030596,95.141841 71.8540743,95.2122458 71.7046879,95.2819427 C71.6369772,95.3134808 71.5689,95.3450583 71.5007401,95.3764888 C71.3685463,95.4374963 71.2362626,95.4977994 71.1036718,95.5575481 C71.0458161,95.5835732 70.9875133,95.6097134 70.9291515,95.6357464 C70.8350818,95.6777508 70.7413223,95.7192278 70.6474121,95.7604278 C70.4836936,95.8322146 70.3190405,95.9034057 70.1539323,95.9737447 C70.0772805,96.0064374 70.0006403,96.0388618 69.9239029,96.0711026 C69.786506,96.1287939 69.6487327,96.1859594 69.5106506,96.2425323 C69.4268011,96.2769185 69.3428242,96.3110584 69.258734,96.344979 C69.1468622,96.3900756 69.034829,96.4348001 68.9225974,96.479135 C68.850832,96.5075135 68.7787339,96.5358017 68.7065545,96.5639291 C68.5148219,96.6386169 68.3228496,96.7120721 68.1303139,96.784388 C68.0759981,96.8048124 68.0217347,96.8250861 67.9674268,96.8452692 C67.8198016,96.9001119 67.6715199,96.9544271 67.5229118,97.0080667 C67.4622022,97.0299994 67.4018567,97.0516494 67.3414577,97.0731879 C67.1713153,97.1338434 67.0005481,97.1937032 66.8293612,97.2526709 C66.7975922,97.2636313 66.765875,97.274521 66.7341434,97.2853801 C66.5406037,97.3515968 66.3464654,97.416712 66.1518007,97.4806788 C66.0865376,97.5021383 66.0212818,97.5234328 65.9559673,97.5445982 C65.799833,97.5951814 65.6432133,97.6450873 65.4862616,97.6942499 C65.4497303,97.7057045 65.4133512,97.7170539 65.3769542,97.7283634 C65.1889868,97.78676 65.0002424,97.844193 64.8110296,97.9005498 C64.7693682,97.9129679 64.7282906,97.9251449 64.6871911,97.9372712 C64.4901946,97.9953878 64.2921108,98.0525125 64.0935272,98.1084565 C64.0258099,98.1275411 63.9582145,98.1464305 63.8905617,98.165183 C63.74049,98.2067745 63.5899071,98.247761 63.4390441,98.2880685 C63.3945375,98.2999657 63.3505068,98.311665 63.3064523,98.3233065 C62.8918226,98.4328734 62.4744809,98.5374644 62.0551025,98.6368416 C61.984508,98.653574 61.9138453,98.6701569 61.8431253,98.6865916 C61.6618743,98.7287096 61.4801719,98.7698749 61.2980981,98.8100605 C61.2743394,98.8153072 61.2509826,98.8204446 61.2276198,98.8255658 C60.8059193,98.9180061 60.3818121,99.0052767 59.9557885,99.0872104 C59.8830658,99.1011987 59.8100645,99.1150715 59.7370074,99.1287874 C59.5758213,99.1590469 59.4144999,99.1885204 59.2529112,99.2172279 C59.1825964,99.2297211 59.1122405,99.2420663 59.0418342,99.2542662 C58.9260034,99.2743359 58.8100949,99.2940037 58.6940519,99.3132771 C58.5159015,99.3428674 58.3372624,99.3715538 58.158311,99.3993036 C58.0454613,99.416801 57.9330552,99.4338426 57.8205275,99.4505142 C57.7421763,99.4621241 57.6631437,99.473643 57.5840517,99.4849793 C57.4416869,99.5053833 57.299377,99.5251626 57.1568776,99.5443495 C57.061972,99.5571287 56.9669183,99.5696528 56.8717813,99.5819131 C56.4733818,99.6332524 56.0737886,99.6799361 55.6727917,99.7219423 C55.5683368,99.7328843 55.46396,99.7434916 55.3594893,99.7537815 C55.2562462,99.7639505 55.152893,99.7738114 55.049449,99.7833613 C54.9068284,99.7965287 54.7638289,99.8091221 54.6206588,99.8211203 C54.4376686,99.8364543 54.2547126,99.850793 54.0714839,99.8641574 C54.0505852,99.8656818 54.0296022,99.8671992 54.0086156,99.8687039 C53.7891448,99.8844387 53.5694117,99.8987682 53.349298,99.9116925 C53.3258117,99.9130718 53.3018033,99.9144648 53.2777904,99.915841 C53.0946673,99.9263344 52.9117843,99.9358319 52.7286453,99.9443571 C52.6252401,99.9491704 52.5218995,99.9536677 52.4184784,99.9578551 C52.2446392,99.9648947 52.0702698,99.9710675 51.8956768,99.9763571 C51.8381714,99.9780995 51.7805337,99.9797489 51.7228718,99.981302 C51.5208254,99.986743 51.3187494,99.9909971 51.1163837,99.9940649 C51.0976749,99.9943486 51.0786682,99.9946263 51.0596591,99.9948936 C51.0016818,99.9957084 50.94397,99.9964228 50.886235,99.9970406 L50.3328733,100 L50.3328733,100 C22.5347949,100 -2.33680489e-13,77.6142375 -2.33680489e-13,50 C-2.33680489e-13,22.3857625 25.1664366,0 50.3328733,0 C50.4348723,0 50.5368714,0.00036772304 50.6388688,0.00110202684 L50.9418545,0.00436051648 L50.9418545,0.00436051648 C50.0467188,0.979964555 49.2016996,2.00170775 48.4108335,3.06557712 C48.3662275,3.1245933 48.3221525,3.18424957 48.2782476,3.24403703 L48.4108335,3.06557712 C48.1990287,3.35049593 47.991108,3.63843621 47.7871489,3.92932087 C47.7559129,3.97295073 47.7252171,4.01693008 47.6946118,4.06097627 L47.7871489,3.92932087 C47.5880687,4.21324724 47.3927629,4.49997881 47.2013035,4.78944389 C47.1584746,4.85334989 47.1164464,4.91731658 47.0746059,4.98141546 L47.2013035,4.78944389 C47.105027,4.93500316 47.0097231,5.08125363 46.9154011,5.2281862 L47.0746059,4.98141546 C46.9793974,5.12727312 46.8851611,5.27381519 46.7919063,5.42103259 L46.9154011,5.2281862 C46.8226598,5.37265619 46.7308677,5.5177856 46.6400335,5.66356577 L46.7919063,5.42103259 C46.6051205,5.71590311 46.4222717,6.01348298 46.2434333,6.3136994 C45.5157499,7.53586691 44.8542128,8.80149451 44.2640707,10.1058892 C44.2231925,10.1957717 44.1829678,10.2856196 44.143082,10.3756492 L44.2640707,10.1058892 C44.1965455,10.2551406 44.1299551,10.4048995 44.0643067,10.5551586 L44.143082,10.3756492 C44.0728251,10.5342317 44.0036197,10.6933776 43.9354746,10.8530784 L44.0643067,10.5551586 C43.9920352,10.7205772 43.9209054,10.8866021 43.8509274,11.0532234 L43.9354746,10.8530784 C43.8634929,11.02177 43.7926943,11.1910805 43.7230889,11.3609998 L43.8509274,11.0532234 C43.7829935,11.2149774 43.716145,11.3772935 43.6503909,11.5401627 L43.7230889,11.3609998 C43.6572931,11.5216193 43.5925635,11.6827828 43.5289089,11.8444815 L43.6503909,11.5401627 C43.5847809,11.7026749 43.5202606,11.8657378 43.4568388,12.0293425 L43.5289089,11.8444815 C43.4539256,12.0349582 43.3804339,12.2261776 43.3084481,12.4181255 L43.4568388,12.0293425 C43.3910698,12.1990021 43.3264822,12.3692444 43.263086,12.5400594 L43.3084481,12.4181255 C43.2565131,12.5566089 43.2053619,12.6954714 43.155,12.8347078 L43.263086,12.5400594 C43.1998028,12.7105697 43.1377068,12.8816506 43.076808,13.0532923 L43.155,12.8347078 C43.0897378,13.0151389 43.025801,13.1961979 42.9632012,13.3778731 L43.076808,13.0532923 C43.0152903,13.2266779 42.9549943,13.4006357 42.89593,13.5751555 L42.9632012,13.3778731 C42.9018876,13.5558154 42.8418566,13.7343489 42.7831192,13.9134627 L42.89593,13.5751555 C42.8368393,13.7497536 42.7789815,13.9249141 42.7223668,14.1006269 L42.7831192,13.9134627 C42.7379686,14.0511449 42.6935823,14.1891699 42.6499654,14.3275329 L42.7223668,14.1006269 C42.6607319,14.291921 42.6005705,14.4838697 42.5418957,14.6764597 L42.6499654,14.3275329 C42.525172,14.7234062 42.4066762,15.1220458 42.2945947,15.5233358 C42.1691832,15.9725202 42.0517049,16.4252218 41.942435,16.8810844 C41.7427249,17.7141393 41.5704524,18.5577969 41.4265903,19.4110195 C41.4159159,19.4744102 41.4054775,19.5372874 41.3951936,19.6002161 L41.4265903,19.4110195 C41.3948053,19.5995314 41.3644072,19.7885102 41.3354066,19.9779452 L41.3951936,19.6002161 C41.3643216,19.7891256 41.3348416,19.9784987 41.3067641,20.168325 L41.3354066,19.9779452 C41.3103313,20.1417407 41.2863008,20.3058773 41.2633222,20.4703481 L41.3067641,20.168325 C41.276553,20.3725766 41.2479657,20.5773528 41.2210158,20.7826401 L41.2633222,20.4703481 C41.239035,20.6441854 41.2159228,20.818396 41.193994,20.9929717 L41.2210158,20.7826401 C41.1971565,20.9643855 41.1745805,21.1465316 41.1532971,21.329069 L41.193994,20.9929717 C41.1700843,21.1833178 41.1475813,21.374098 41.1264957,21.5653017 L41.1532971,21.329069 C41.1319934,21.5117809 41.1119849,21.6948848 41.0932808,21.8783716 L41.1264957,21.5653017 C41.1066585,21.7451859 41.0880758,21.9254449 41.0707565,22.1060699 L41.0932808,21.8783716 C41.0768041,22.0400079 41.0613397,22.2019412 41.046894,22.3641653 L41.0707565,22.1060699 C41.0511041,22.3110277 41.0330785,22.5164568 41.0166927,22.7223443 L41.046894,22.3641653 C41.0293058,22.561679 41.0132277,22.7596236 40.9986712,22.9579877 L41.0166927,22.7223443 C40.987498,23.0891748 40.9635087,23.4574605 40.9447981,23.8271284 C40.921216,24.2931844 40.9060325,24.7608591 40.8993653,25.2305798 L40.8954595,25.78125 L40.8954595,25.78125 C40.8954595,26.2173018 40.9027987,26.6516507 40.917361,27.0841816 C41.6092824,47.6234985 58.587876,64.0625 79.4315656,64.0625 C86.9939779,64.0625 94.0476081,61.8985514 99.9992102,58.1599769 C98.7747409,65.5700349 95.910317,72.4317128 91.7883936,78.3650565 C91.7464621,78.4235649 91.7052439,78.482635 91.663901,78.5416123 C91.4181669,78.8939232 91.1670775,79.2424301 90.9116334,79.5875594 C90.8799945,79.6287264 90.8488342,79.670697 90.8176094,79.7126173 C90.1608053,80.5958072 89.4749864,81.4558446 88.7619915,82.2922949 C88.7014781,82.3622024 88.6412738,82.432447 88.5808777,82.5025236 C88.3967833,82.7171551 88.2106713,82.929432 88.0227966,83.1401221 L87.9464388,83.2246047 C87.8238298,83.3614951 87.7004748,83.4977117 87.5763802,83.6332483 C86.7829237,84.5006438 85.9591693,85.339414 85.1068395,86.1487359 C84.9785611,86.2699557 84.8501671,86.3906087 84.7211365,86.5105944 L84.6262313,86.59917 C84.5639606,86.656773 84.5015428,86.714221 84.4389785,86.7715135 C84.3798335,86.8251461 84.3208316,86.8789241 84.2617003,86.9325638 C84.1843847,87.0032108 84.1066692,87.0732641 84.0287328,87.1430787 C83.7528127,87.389767 83.4743619,87.633758 83.1931987,87.8747117 L83.0708031,87.9796908 L83.0708031,87.9796908 Z" id="Combined-Shape" fill="url(#linearGradient-1)"></path>
                <path d="M51.0492645,99.9937538 L51.1065776,99.9929131 C51.3072613,99.989858 51.5076601,99.9856362 51.7077675,99.9802542 L51.1072775,99.9929025 C51.3662438,99.9889566 51.6247357,99.9830679 51.882739,99.9752504 L51.7077675,99.9802542 C51.9459807,99.9738472 52.1837809,99.9657962 52.421157,99.956112 L51.882739,99.9752504 C52.1590186,99.9668791 52.4347379,99.9562961 52.7098798,99.9435186 C52.8929566,99.9350155 53.0754809,99.9255577 53.2577452,99.9151366 L52.7098798,99.9435186 C52.9223303,99.9336524 53.1344365,99.9224779 53.3461904,99.9100028 L53.2577452,99.9151366 C53.4991365,99.9013348 53.7400718,99.8858431 53.9805393,99.8686734 L53.3461904,99.9100028 C53.5867105,99.8958331 53.826776,99.8799855 54.0663752,99.8624718 L53.9805393,99.8686734 C54.1868158,99.8539449 54.392748,99.8379816 54.5983286,99.8207908 L54.0663752,99.8624718 C54.3905609,99.8387751 54.7138929,99.8120282 55.0363425,99.7822597 C55.1405843,99.7726358 55.2445285,99.7627163 55.3483799,99.7524832 L55.0363425,99.7822597 C55.2419005,99.7632826 55.4470999,99.7430776 55.6519331,99.7216522 L55.3483799,99.7524832 C55.85405,99.7026564 56.3575191,99.6453953 56.8586747,99.5808115 C56.9536129,99.568577 57.0487341,99.5560442 57.143771,99.5432479 L56.8586747,99.5808115 C57.094617,99.5504057 57.3300465,99.5183768 57.5649515,99.4847364 L57.143771,99.5432479 C57.3717343,99.5125537 57.5992127,99.4803433 57.8261957,99.4466274 L57.5649515,99.4847364 C57.7497002,99.4582789 57.9341244,99.4308246 58.1182185,99.4023792 L57.8261957,99.4466274 C58.1119043,99.4041885 58.3968279,99.3593642 58.6809454,99.3121755 C58.7971217,99.2928806 58.9129926,99.2732189 59.0287276,99.2531646 L58.6809454,99.3121755 C58.8675817,99.2811773 59.0538701,99.2491589 59.2398046,99.2161262 L59.0287276,99.2531646 C59.2610031,99.2129163 59.4927313,99.1710861 59.7239008,99.1276858 L59.2398046,99.2161262 C59.4746657,99.1744014 59.7089622,99.1310582 59.9426819,99.0861088 L59.7239008,99.1276858 C60.2234199,99.0339048 60.7203299,98.9327919 61.2145132,98.8244642 C61.2382901,98.8192489 61.2616439,98.8141119 61.2849916,98.8089589 L61.2145132,98.8244642 C61.4201567,98.779386 61.625328,98.7330585 61.8300187,98.68549 L61.2849916,98.8089589 C61.5380489,98.7531064 61.790389,98.6953616 62.0419959,98.63574 L61.8300187,98.68549 C62.3293303,98.569454 62.8257818,98.446034 63.3192502,98.3153522 C63.3339605,98.3114503 63.3489616,98.3074703 63.36396,98.3034835 L63.3192502,98.3153522 C63.5161089,98.2632195 63.7124928,98.2099311 63.9083941,98.1554948 L63.36396,98.3034835 C63.6020922,98.2401854 63.8395283,98.1751958 64.0762543,98.1085284 L63.9083941,98.1554948 C64.1785203,98.0804333 64.4477291,98.0031891 64.7159998,97.9237828 C64.7207764,97.9223592 64.7257875,97.9208752 64.7307983,97.9193903 L64.7159998,97.9237828 C64.9329114,97.8595784 65.1492098,97.7939605 65.3648841,97.7269397 L64.7307983,97.9193903 C64.9790598,97.8458228 65.2265175,97.7704034 65.473155,97.6931483 L65.3648841,97.7269397 C65.5580462,97.6669147 65.7507076,97.6057644 65.9428607,97.5434966 L65.473155,97.6931483 C65.6943348,97.6238673 65.9148551,97.5531101 66.1347041,97.4808881 L65.9428607,97.5434966 C66.2031818,97.4591387 66.4625699,97.3727298 66.7210057,97.2842891 L66.1347041,97.4808881 C66.3626134,97.4060183 66.5898012,97.3295743 66.8162546,97.2515693 L66.7210057,97.2842891 C66.9290636,97.2130885 67.1365043,97.1405709 67.3433176,97.0667465 L66.8162546,97.2515693 C67.0375952,97.1753255 67.2582341,97.0975902 67.4781592,97.0183756 L67.3433176,97.0667465 C67.5586411,96.9898843 67.7732845,96.9116055 67.9872366,96.8319214 L67.4781592,97.0183756 C67.6911585,96.9416557 67.9034881,96.8635481 68.1151371,96.7840639 L67.9872366,96.8319214 C68.2244934,96.7435576 68.4609,96.6534657 68.6964407,96.5616611 L68.1151371,96.7840639 C68.3640383,96.6905897 68.6119981,96.5952117 68.8589985,96.4979478 L68.6964407,96.5616611 C68.8940828,96.4846279 69.0911153,96.4063889 69.287529,96.326953 L68.8589985,96.4979478 C69.0714829,96.4142756 69.2832574,96.3292076 69.4943103,96.2427554 L69.287529,96.326953 C69.4960537,96.2426191 69.7038811,96.1569363 69.911,96.0699154 L69.4943103,96.2427554 C69.7018329,96.1577493 69.9086579,96.0714048 70.1147745,95.9837327 C70.4620353,95.836066 70.8072877,95.6845919 71.1504774,95.5294014 C71.249772,95.4844526 71.3493473,95.439032 71.448747,95.3932987 L71.1504774,95.5294014 C71.6078385,95.3225826 72.0615362,95.1091633 72.5114474,94.8892661 C72.580479,94.8554625 72.6498236,94.8213713 72.7190776,94.7871263 L72.5114474,94.8892661 C72.7247352,94.7850202 72.937172,94.6793184 73.1487447,94.5721739 L72.7190776,94.7871263 C72.9049705,94.6952051 73.0902103,94.6021753 73.2747881,94.5080459 L73.1487447,94.5721739 C73.5773185,94.3551357 74.0023464,94.1321773 74.4237193,93.9034072 C74.4665857,93.8800398 74.5088976,93.8569878 74.5511725,93.8338772 L74.4237193,93.9034072 C74.5843374,93.816205 74.7444245,93.7281585 74.9039744,93.6392735 L74.5511725,93.8338772 C74.9743463,93.6025392 75.3938088,93.3653299 75.8094487,93.1223597 C75.958567,93.0353142 76.1071917,92.9474072 76.2553193,92.8587638 L75.8094487,93.1223597 C75.9904884,93.0165296 76.1708029,92.9096064 76.350383,92.8015995 L76.2553193,92.8587638 C76.4123035,92.7648205 76.5687294,92.6700502 76.724591,92.574459 L76.350383,92.8015995 C76.546504,92.6836442 76.7417491,92.5643962 76.9361062,92.4438675 L76.724591,92.574459 C77.1460413,92.3159798 77.5633654,92.0514981 77.9764422,91.7811339 C78.0302593,91.7457296 78.084244,91.7102463 78.1381557,91.6746625 L77.9764422,91.7811339 C78.1979115,91.6361794 78.4181599,91.489534 78.6371689,91.3412162 L79.1222201,91.0083703 C79.2204715,90.9401449 79.3184662,90.87158 79.4162026,90.8026772 C79.5033126,90.7414989 79.5899883,90.6799857 79.6764587,90.6182067 L79.4162026,90.8026772 C79.5802542,90.6870232 79.7435779,90.5704173 79.9061656,90.4528677 L79.6764587,90.6182067 C79.8083585,90.5239706 79.9397807,90.4291162 80.0707209,90.3336477 L79.9061656,90.4528677 C80.1181826,90.2995811 80.3289479,90.1446898 80.5384437,89.9882116 C80.6378931,89.9142137 80.7370528,89.8395821 80.8359246,89.7645949 L80.5384437,89.9882116 C80.7058008,89.863208 80.8723477,89.7371916 81.0380751,89.6101718 L80.8359246,89.7645949 C80.9846268,89.6518149 81.1326776,89.5382305 81.2800705,89.4238483 L81.0380751,89.6101718 C81.5785827,89.1959059 82.1103737,88.7709658 82.633128,88.3356693 C82.7414482,88.2458752 82.8494892,88.1551483 82.9571386,88.0639786 L82.633128,88.3356693 C83.0271377,88.0075782 83.4160138,87.6736036 83.7996192,87.3338818 C83.8683924,87.2734623 83.9370272,87.2123498 84.0054917,87.1510531 L83.7996192,87.3338818 C83.9500911,87.2006235 84.099752,87.0664809 84.2485937,86.9314622 L84.0054917,87.1510531 C84.1463415,87.0249495 84.2864705,86.8980668 84.4258719,86.7704119 L84.2485937,86.9314622 C85.1258185,86.1357056 85.9745864,85.3095173 86.7932044,84.4545788 C86.8394295,84.4070954 86.8852389,84.3590694 86.9309531,84.3109532 L86.7932044,84.4545788 C87.0523184,84.1839684 87.3084117,83.9104775 87.5614306,83.6341595 C87.6177575,83.5735488 87.6738463,83.5119977 87.7297828,83.4503075 L87.5614306,83.6341595 C87.7805876,83.3948215 87.9974381,83.1533625 88.2119472,82.9098171 C88.2646928,82.8509365 88.3167058,82.7916092 88.3685799,82.7321591 L88.2119472,82.9098171 C88.3204741,82.7865998 88.4284017,82.6628484 88.5357254,82.5385674 L88.3685799,82.7321591 C88.4947477,82.5875652 88.6200941,82.4422449 88.744612,82.2962054 L88.5357254,82.5385674 C89.1834042,81.7885551 89.8090914,81.0192567 90.4117941,80.2316584 C90.4668986,80.1611166 90.5212691,80.0896819 90.5754506,80.018098 L90.4117941,80.2316584 C91.5955521,78.68475 92.6906442,77.0672477 93.6895463,75.3866241 C91.8055292,75.616077 89.8871465,75.7341925 87.9411765,75.7341925 C61.9513059,75.7341925 40.8823529,54.6652396 40.8823529,28.675369 C40.8823529,28.1599312 40.8906397,27.6464288 40.9060701,27.1359321 C40.9054063,27.1169883 40.9047564,27.0980411 40.9041203,27.0790904 C40.9016176,27.0045686 40.8993085,26.9292429 40.8972188,26.8538628 C40.8873266,26.4969213 40.8823529,26.1391118 40.8823529,25.7801484 C40.8823529,26.1392294 40.8873298,26.4971556 40.8972188,26.8538628 C40.8992944,26.9287596 40.9015984,27.0039524 40.9041203,27.0790904 L40.8972188,26.8538628 C41.4695765,47.4995403 58.4970269,64.0613984 79.418459,64.0613984 C86.9808713,64.0613984 94.0345015,61.8974498 99.9861036,58.1588753 C98.6461184,66.2679955 95.3421574,73.7203871 90.5754506,80.018098 C90.5207463,80.0888858 90.4663644,80.1603471 90.4117941,80.2316584 C89.8744905,80.9351391 89.3183461,81.6233073 88.744612,82.2962054 C88.6749152,82.3768671 88.6054477,82.457829 88.5357254,82.5385674 C88.4804659,82.603604 88.4246039,82.6679532 88.3685799,82.7321591 C88.3161121,82.7912718 88.2640988,82.8506061 88.2119472,82.9098171 C88.0529132,83.0913561 87.8919888,83.2714165 87.7297828,83.4503075 C87.6736917,83.5112557 87.617637,83.5727774 87.5614306,83.6341595 C87.3533981,83.8622135 87.1432002,84.0875544 86.9309531,84.3109532 C86.8849015,84.3586238 86.8391003,84.4066465 86.7932044,84.4545788 C86.0300637,85.2522812 85.2403883,86.0245294 84.4258719,86.7704119 C84.3667269,86.8240445 84.307725,86.8778225 84.2485937,86.9314622 C84.1679195,87.0051556 84.0868258,87.0782342 84.0054917,87.1510531 C83.9369458,87.2119305 83.8683672,87.2729984 83.7996192,87.3338818 C83.5215227,87.580623 83.2406888,87.8238364 82.9571386,88.0639786 C82.8495037,88.1547251 82.7415101,88.2454198 82.633128,88.3356693 C82.1885024,88.7062732 81.7374541,89.0689022 81.2800705,89.4238483 C81.1994581,89.4860939 81.1188639,89.5482521 81.0380751,89.6101718 C80.9708591,89.6619889 80.903459,89.7133749 80.8359246,89.7645949 C80.7371576,89.8392148 80.6379438,89.9138922 80.5384437,89.9882116 C80.3832329,90.1044145 80.2273216,90.2194702 80.0707209,90.3336477 C80.0157151,90.3734965 79.9609822,90.4132357 79.9061656,90.4528677 C79.8300399,90.5081544 79.7533304,90.5632855 79.6764587,90.6182067 C79.5897139,90.6799435 79.5030603,90.7414438 79.4162026,90.8026772 C79.3479316,90.8510354 79.2793034,90.8991598 79.2105489,90.9471176 L79.1222201,91.0083703 C78.7969896,91.2342091 78.4689472,91.4563272 78.1381557,91.6746625 C78.0845003,91.7102602 78.0305076,91.7457474 77.9764422,91.7811339 C77.6324224,92.0061283 77.2857007,92.2270698 76.9361062,92.4438675 C76.8658203,92.4876019 76.7952636,92.5311148 76.724591,92.574459 C76.6000628,92.6506924 76.4754009,92.7264086 76.350383,92.8015995 C76.3187513,92.8207571 76.2870467,92.8397774 76.2553193,92.8587638 C76.1072296,92.9472569 75.9585852,93.0351792 75.8094487,93.1223597 C75.5096001,93.2977562 75.2077608,93.4700346 74.9039744,93.6392735 C74.7868098,93.7044466 74.6691354,93.76939 74.5511725,93.8338772 C74.5085004,93.8572992 74.4661284,93.8803826 74.4237193,93.9034072 C74.0440369,94.1094623 73.6608606,94.3111598 73.2747881,94.5080459 C73.2326479,94.5296097 73.1907133,94.5509201 73.1487447,94.5721739 C73.0060247,94.6443803 72.8627462,94.7160843 72.7190776,94.7871263 C72.650172,94.8212653 72.5808547,94.8553428 72.5114474,94.8892661 C72.1592412,95.0613463 71.8051224,95.2293323 71.448747,95.3932987 C71.349886,95.4388357 71.2502689,95.4842757 71.1504774,95.5294014 C70.8069837,95.6846809 70.4618837,95.8360893 70.1147745,95.9837327 C70.0469248,96.0126304 69.9790006,96.041345 69.911,96.0699154 C69.7725751,96.1280399 69.6335998,96.1856991 69.4943103,96.2427554 C69.4255145,96.2709686 69.35656,96.2990347 69.287529,96.326953 C69.1446299,96.3847132 69.0019749,96.4416465 68.8589985,96.4979478 C68.8052978,96.5191233 68.7508924,96.540438 68.6964407,96.5616611 C68.5029652,96.6370419 68.3093377,96.7111324 68.1151371,96.7840639 C68.0725085,96.8000967 68.0298863,96.8160369 67.9872366,96.8319214 C67.8179781,96.8949376 67.6482822,96.9570992 67.4781592,97.0183756 C67.4333482,97.0345365 67.3883478,97.0506725 67.3433176,97.0667465 C67.1680213,97.1293013 66.9923601,97.1909073 66.8162546,97.2515693 C66.7844753,97.2625333 66.7527477,97.2734265 66.7210057,97.2842891 C66.5261743,97.3509478 66.330706,97.4165001 66.1347041,97.4808881 C66.0708229,97.5018878 66.00687,97.5227542 65.9428607,97.5434966 C65.7867264,97.5940798 65.6301067,97.6439857 65.473155,97.6931483 C65.4369689,97.7044948 65.4009353,97.7157368 65.3648841,97.7269397 C65.1542923,97.7923713 64.9428385,97.8565563 64.7307983,97.9193903 C64.7260262,97.9208142 64.7210132,97.9222989 64.7159998,97.9237828 L64.7307983,97.9193903 C64.5132307,97.9838622 64.2950458,98.0469119 64.0762543,98.1085284 C64.0203254,98.1242871 63.9643794,98.1399379 63.9083941,98.1554948 C63.7271695,98.2058447 63.5457676,98.2551571 63.36396,98.3034835 C63.3492903,98.3073894 63.3342717,98.3113742 63.3192502,98.3153522 C62.8954743,98.4275696 62.4697948,98.5343675 62.0419959,98.63574 C61.9714014,98.6524723 61.9007388,98.6690552 61.8300187,98.68549 C61.6487677,98.727608 61.4670653,98.7687733 61.2849916,98.8089589 C61.2612328,98.8142056 61.2378761,98.819343 61.2145132,98.8244642 C60.7928127,98.9169045 60.3687055,99.0041751 59.9426819,99.0861088 C59.8699592,99.1000971 59.7969579,99.1139698 59.7239008,99.1276858 C59.5627148,99.1579453 59.4013933,99.1874188 59.2398046,99.2161262 C59.1694899,99.2286195 59.0991339,99.2409647 59.0287276,99.2531646 C58.9128968,99.2732342 58.7969883,99.2929021 58.6809454,99.3121755 C58.493832,99.3432545 58.3061974,99.3733335 58.1182185,99.4023792 C58.0209792,99.4174034 57.9236331,99.4321542 57.8261957,99.4466274 C57.7391027,99.4595646 57.6520632,99.4722613 57.5649515,99.4847364 C57.4247911,99.5048082 57.2843732,99.5243164 57.143771,99.5432479 C57.0488654,99.556027 56.9538118,99.5685512 56.8586747,99.5808115 C56.4577097,99.6324814 56.0555322,99.6794359 55.6519331,99.7216522 C55.5510766,99.7322026 55.4497725,99.7424923 55.3483799,99.7524832 C55.2443503,99.7627334 55.1403923,99.7726538 55.0363425,99.7822597 C54.8906548,99.7957102 54.7445807,99.8085611 54.5983286,99.8207908 C54.4212194,99.8356004 54.2439254,99.8494936 54.0663752,99.8624718 C54.0371924,99.8646045 54.0088691,99.8666506 53.9805393,99.8686734 C53.770009,99.883709 53.5582764,99.8975082 53.3461904,99.9100028 C53.316403,99.9117574 53.2870775,99.9134595 53.2577452,99.9151366 C53.0756727,99.9255483 52.892904,99.935019 52.7098798,99.9435186 C52.6139077,99.9479761 52.5175674,99.9521787 52.421157,99.956112 C52.2415938,99.9634358 52.0622847,99.9698102 51.882739,99.9752504 C51.8244606,99.9770163 51.7661264,99.9786845 51.7077675,99.9802542 C51.5080371,99.9856269 51.3077995,99.9898471 51.1072775,99.9929025 C51.0872372,99.9932075 51.0678942,99.9934911 51.0485485,99.9937639 C50.9905767,99.994582 50.9318646,99.9953105 50.8731284,99.995939 L50.3197667,99.9988984 C50.5631011,99.9988984 50.8060323,99.9971831 51.0485485,99.9937639 L51.0492645,99.9937538 Z M40.8825479,25.6570627 C40.8847669,24.9567285 40.905917,24.2608211 40.9455169,23.5698192 C40.9522541,23.4522701 40.9594984,23.3352724 40.9672706,23.218418 C40.9727806,23.1356002 40.9785287,23.0532141 40.9845388,22.9709001 C40.9923459,22.8639328 41.0006478,22.7564584 41.0093956,22.6491092 C41.0171852,22.5535437 41.0253109,22.4582536 41.0337874,22.3630637 C41.0383992,22.3112516 41.0431066,22.2595807 41.0479172,22.2079395 C41.0607483,22.0702201 41.0743279,21.9325551 41.0886396,21.795106 C41.0947455,21.7364274 41.1010345,21.6773603 41.1074585,21.6183334 C41.1190567,21.5118118 41.1310436,21.405826 41.1434652,21.2999721 C41.1529478,21.2191251 41.1626765,21.1384519 41.1726573,21.0578563 C41.1856207,20.953213 41.1990583,20.8482888 41.2129227,20.743498 C41.225048,20.6518043 41.23747,20.560474 41.2502156,20.4692465 C41.2618451,20.3860594 41.2737812,20.3026508 41.2859874,20.2193293 C41.3024813,20.1066845 41.3194127,19.9946167 41.3368319,19.8827089 C41.344266,19.8350157 41.3518323,19.7870133 41.3594882,19.7390406 C41.378013,19.6228958 41.3970089,19.5073152 41.4165246,19.3919099 C41.4308924,19.3070198 41.4456379,19.2216013 41.4606678,19.1362799 C41.5392306,18.6902065 41.6255452,18.2469627 41.7194837,17.8065157 C41.8225689,17.3233191 41.9348464,16.8433234 42.0561172,16.3668848 C42.1794485,15.8821532 42.3121208,15.4011401 42.4538996,14.9240071 C42.4844618,14.8213898 42.5154437,14.7187341 42.5468467,14.6162606 C42.6803535,14.1803134 42.8216933,13.7472647 42.9705126,13.3176737 C43.0011997,13.2293967 43.0322913,13.1407191 43.0637014,13.0521907 C43.0895735,12.978951 43.1156261,12.9062277 43.1418934,12.8336062 C43.1723205,12.7498161 43.2030396,12.6658239 43.2340458,12.5819693 C43.2647034,12.498711 43.2957015,12.4157693 43.3269802,12.3329639 C43.3647339,12.2333768 43.4028657,12.1337131 43.4414035,12.0342496 C43.4696404,11.9609943 43.4983436,11.8875871 43.5272678,11.81429 C43.5637044,11.7223457 43.6003214,11.630616 43.6372843,11.5390611 C43.6692544,11.4594692 43.7016267,11.3800564 43.734259,11.3007766 C43.7684799,11.2180523 43.8030078,11.1350132 43.8378208,11.0521218 C43.8684584,10.9787425 43.8993637,10.9057924 43.9304896,10.8329578 C43.9550355,10.7759613 43.9797216,10.7185921 44.0045445,10.6612952 C44.116574,10.4022389 44.231471,10.1449263 44.3491206,9.88912502 C44.3893959,9.80206059 44.4296663,9.71537672 44.4702526,9.62886856 C44.6822429,9.17646038 44.9031545,8.72877706 45.1324982,8.28611081 C45.3499212,7.86709293 45.5746904,7.45239483 45.8068443,7.04237336 C46.0385479,6.63241087 46.278049,6.22707732 46.5247531,5.82659838 C46.5564411,5.77593853 46.5881838,5.72468621 46.6200445,5.67351401 C46.9604688,5.12591599 47.3144782,4.58808881 47.6815052,4.05987466 C47.7124836,4.01621 47.7432177,3.97218101 47.7740423,3.92821926 C47.9349747,3.69774624 48.0988371,3.46939969 48.265141,3.24293543 C48.3180173,3.171919 48.3708051,3.10056305 48.4238355,3.02939614 C48.563697,2.84068011 48.7057546,2.65361908 48.8494887,2.46790516 L48.5617366,2.84548281 C48.636873,2.74589806 48.7124868,2.64668894 48.7885744,2.5478588 L48.8494887,2.46790516 C49.4150428,1.62597617 50.0070763,0.803321686 50.6257622,4.17906806e-07 L50.6257622,4.17906806e-07 L50.6242622,-1.03542524e-05 L50.3197667,-0.00110160893 L50.3197667,-0.00110160893 C50.4217657,-0.00110160893 50.5237648,-0.000733885894 50.6257622,4.17906806e-07 L50.9287479,0.00325890754 L50.9287479,0.00325890754 C50.043455,0.968135286 49.2071826,1.97814171 48.4238355,3.02939614 C48.3703635,3.10016744 48.3176306,3.17145768 48.265141,3.24293543 L48.4238355,3.02939614 C48.2030024,3.32575474 47.9863756,3.62539144 47.7740423,3.92821926 C47.7428063,3.97184912 47.7121105,4.01582847 47.6815052,4.05987466 L47.7740423,3.92821926 C47.3739359,4.4988474 46.9890749,5.08080629 46.6200445,5.67351401 C46.5880914,5.72405202 46.5563631,5.77528535 46.5247531,5.82659838 L46.6200445,5.67351401 C46.3397601,6.12368483 46.0686079,6.58005627 45.8068443,7.04237336 C45.5743458,7.45236834 45.3496426,7.86699082 45.1324982,8.28611081 C44.9033934,8.72887114 44.6825023,9.17646716 44.4702526,9.62886856 C44.429373,9.71550046 44.389088,9.80222553 44.3491206,9.88912502 L44.4702526,9.62886856 C44.3100642,9.97030363 44.154798,10.3144758 44.0045445,10.6612952 C43.9796715,10.7182643 43.9550121,10.7755752 43.9304896,10.8329578 L44.0045445,10.6612952 C43.9482651,10.7912009 43.8926889,10.921478 43.8378208,11.0521218 L43.9304896,10.8329578 C43.8640724,10.9883741 43.7986595,11.1443164 43.734259,11.3007766 L43.8378208,11.0521218 C43.7698869,11.2138758 43.7030384,11.3761919 43.6372843,11.5390611 L43.734259,11.3007766 C43.6640554,11.4713357 43.5950548,11.6425103 43.5272678,11.81429 L43.6372843,11.5390611 C43.5708711,11.7035628 43.5055744,11.8686287 43.4414035,12.0342496 L43.5272678,11.81429 C43.459281,11.9865761 43.3925149,12.1594709 43.3269802,12.3329639 L43.4414035,12.0342496 C43.3709221,12.2161574 43.3017987,12.3987347 43.2340458,12.5819693 L43.3269802,12.3329639 C43.2641497,12.4992979 43.202451,12.6661818 43.1418934,12.8336062 L43.2340458,12.5819693 C43.1762651,12.7382343 43.1194811,12.8949773 43.0637014,13.0521907 L43.1418934,12.8336062 C43.0837103,12.9944657 43.0265806,13.1558243 42.9705126,13.3176737 L43.0637014,13.0521907 C42.8804916,13.5685621 42.7081164,14.0900085 42.5468467,14.6162606 C42.5153118,14.7189324 42.484395,14.82138 42.4538996,14.9240071 L42.5468467,14.6162606 C42.36976,15.1941262 42.206064,15.7777865 42.0561172,16.3668848 C41.9348292,16.8432435 41.8225663,17.3231956 41.7194837,17.8065157 C41.6255329,18.2471328 41.5392162,18.6903793 41.4606678,19.1362799 C41.4456802,19.2212765 41.4309602,19.3065453 41.4165246,19.3919099 L41.4606678,19.1362799 C41.425368,19.3366684 41.3916372,19.537593 41.3594882,19.7390406 L41.4165246,19.3919099 C41.3889179,19.5551613 41.3623513,19.7187633 41.3368319,19.8827089 L41.3594882,19.7390406 C41.3339907,19.8988099 41.3094883,20.0589083 41.2859874,20.2193293 L41.3368319,19.8827089 C41.306474,20.0777391 41.277598,20.2732555 41.2502156,20.4692465 L41.2859874,20.2193293 C41.2604467,20.3936739 41.236089,20.5683996 41.2129227,20.743498 L41.2502156,20.4692465 C41.2228692,20.6649804 41.1970125,20.8611875 41.1726573,21.0578563 L41.2129227,20.743498 C41.1884359,20.9285762 41.1652802,21.1140708 41.1434652,21.2999721 L41.1726573,21.0578563 C41.149572,21.2442706 41.1278358,21.4310996 41.1074585,21.6183334 L41.1434652,21.2999721 C41.1241349,21.4646997 41.1058574,21.6297467 41.0886396,21.795106 L41.1074585,21.6183334 C41.0861169,21.8144286 41.0662659,22.0109678 41.0479172,22.2079395 L41.0886396,21.795106 C41.0689691,21.9840209 41.0506816,22.1733435 41.0337874,22.3630637 L41.0479172,22.2079395 C41.0342405,22.3547573 41.0213983,22.5018154 41.0093956,22.6491092 L41.0337874,22.3630637 C41.015785,22.5652284 40.9993647,22.7678447 40.9845388,22.9709001 L41.0093956,22.6491092 C40.993963,22.8384926 40.9799179,23.0282656 40.9672706,23.218418 L40.9845388,22.9709001 C40.9699929,23.1701209 40.9569817,23.3697645 40.9455169,23.5698192 L40.9672706,23.218418 C40.9237097,23.8733547 40.8967296,24.532793 40.8867436,25.1963224 Z" id="Combined-Shape" fill="url(#linearGradient-2)"></path>
                <circle id="Oval-Copy" fill="url(#linearGradient-3)" cx="77.9411765" cy="33.8235294" r="16.1764706"></circle>
            </g>
            <path d="M135.314597,73.1428571 L135.314597,48 C135.314597,46.4761905 135.518888,44.968254 135.927471,43.4761905 C136.336053,41.984127 136.933212,40.6666667 137.718948,39.5238095 C138.504684,38.3809524 139.526141,37.4444444 140.783318,36.7142857 C142.040496,35.984127 143.517679,35.6190476 145.214869,35.6190476 C148.106377,35.6190476 150.227863,36.5555556 151.579329,38.4285714 C152.930795,40.3015873 153.606528,42.6666667 153.606528,45.5238095 L153.606528,45.5238095 L153.606528,73.1428571 L164.921124,73.1428571 L164.921124,48.1904762 C164.921124,46.7301587 165.109701,45.2539683 165.486854,43.7619048 C165.864007,42.2698413 166.461167,40.9206349 167.278332,39.7142857 C168.095497,38.5079365 169.132668,37.5238095 170.389846,36.7619048 C171.647023,36 173.155636,35.6190476 174.915684,35.6190476 C176.738592,35.6190476 178.20006,36 179.300091,36.7619048 C180.400121,37.5238095 181.26443,38.4920635 181.893019,39.6666667 C182.521608,40.8412698 182.93019,42.1587302 183.118767,43.6190476 C183.307344,45.0793651 183.401632,46.4761905 183.401632,47.8095238 L183.401632,47.8095238 L183.401632,73.1428571 L194.716228,73.1428571 L194.716228,44.5714286 C194.716228,42.2222222 194.401934,39.9365079 193.773345,37.7142857 C193.144757,35.4920635 192.15473,33.5238095 190.803264,31.8095238 C189.451798,30.0952381 187.723179,28.7142857 185.617407,27.6666667 C183.511635,26.6190476 180.981565,26.0952381 178.027199,26.0952381 C174.63282,26.0952381 171.678453,26.8412698 169.164098,28.3333333 C166.649743,29.8253968 164.638259,31.968254 163.129646,34.7619048 C161.872469,32.1587302 160.080991,30.0634921 157.755213,28.4761905 C155.429435,26.8888889 152.506497,26.0952381 148.986401,26.0952381 C147.163494,26.0952381 145.497733,26.3333333 143.989121,26.8095238 C142.480508,27.2857143 141.144757,27.9365079 139.981868,28.7619048 C138.818979,29.5873016 137.813237,30.5079365 136.964642,31.5238095 C136.116047,32.5396825 135.440314,33.6190476 134.937443,34.7619048 L134.937443,34.7619048 L134.748867,34.7619048 L134.748867,27.4285714 L124,27.4285714 L124,73.1428571 L135.314597,73.1428571 Z M221.977335,74.2857143 C225.183137,74.2857143 228.043215,73.6349206 230.55757,72.3333333 C233.071925,71.031746 234.894832,69.3650794 236.026292,67.3333333 L236.026292,67.3333333 L236.309157,67.3333333 L236.309157,73.1428571 L246.869447,73.1428571 L246.869447,45.3333333 C246.869447,43.047619 246.570867,40.7619048 245.973708,38.4761905 C245.376549,36.1904762 244.323663,34.1269841 242.81505,32.2857143 C241.306437,30.4444444 239.247809,28.952381 236.639166,27.8095238 C234.030523,26.6666667 230.714717,26.0952381 226.69175,26.0952381 C223.234512,26.0952381 219.824418,26.6984127 216.461469,27.9047619 C213.098519,29.1111111 210.128438,30.9206349 207.551224,33.3333333 L207.551224,33.3333333 L213.397099,40.2857143 C214.842853,38.8253968 216.66576,37.5873016 218.86582,36.5714286 C221.065881,35.5555556 223.36023,35.047619 225.748867,35.047619 C228.577516,35.047619 231.013297,35.7301587 233.05621,37.0952381 C235.099124,38.4603175 236.12058,40.5714286 236.12058,43.4285714 L236.12058,43.4285714 L236.12058,44.5714286 C232.600484,44.5714286 229.001813,44.7460317 225.324569,45.0952381 C221.647325,45.4444444 218.300091,46.1587302 215.282865,47.2380952 C212.265639,48.3174603 209.798429,49.8730159 207.881233,51.9047619 C205.964037,53.9365079 205.00544,56.6666667 205.00544,60.0952381 C205.00544,62.7619048 205.555455,65 206.655485,66.8095238 C207.755515,68.6190476 209.13841,70.0793651 210.80417,71.1904762 C212.46993,72.3015873 214.292838,73.0952381 216.272892,73.5714286 C218.252947,74.047619 220.154427,74.2857143 221.977335,74.2857143 Z M224.240254,65.6190476 C223.297371,65.6190476 222.354488,65.5238095 221.411605,65.3333333 C220.468722,65.1428571 219.620127,64.8253968 218.86582,64.3809524 C218.111514,63.9365079 217.49864,63.3492063 217.027199,62.6190476 C216.555757,61.8888889 216.320036,60.984127 216.320036,59.9047619 C216.320036,58.1904762 216.885766,56.8412698 218.017226,55.8571429 C219.148685,54.8730159 220.56301,54.1111111 222.260199,53.5714286 C223.957389,53.031746 225.811726,52.6825397 227.823209,52.5238095 C229.834693,52.3650794 231.751889,52.2857143 233.574796,52.2857143 L233.574796,52.2857143 L236.12058,52.2857143 L236.12058,53.9047619 C236.12058,57.5238095 235.114838,60.3809524 233.103354,62.4761905 C231.091871,64.5714286 228.137504,65.6190476 224.240254,65.6190476 Z M280.825023,96 C285.225144,96 289.028105,95.3650794 292.233908,94.0952381 C295.43971,92.8253968 298.095497,91.031746 300.201269,88.7142857 C302.307041,86.3968254 303.862798,83.5714286 304.86854,80.2380952 C305.874282,76.9047619 306.377153,73.1746032 306.377153,69.047619 L306.377153,69.047619 L306.377153,27.4285714 L295.628286,27.4285714 L295.628286,34.2857143 L295.43971,34.2857143 C293.805379,31.4920635 291.605319,29.4285714 288.839529,28.0952381 C286.073738,26.7619048 283.087942,26.0952381 279.88214,26.0952381 C276.487761,26.0952381 273.423391,26.7301587 270.68903,28 C267.954669,29.2698413 265.628891,30.984127 263.711695,33.1428571 C261.7945,35.3015873 260.317316,37.8412698 259.280145,40.7619048 C258.242974,43.6825397 257.724388,46.7936508 257.724388,50.0952381 C257.724388,53.3333333 258.258688,56.3968254 259.327289,59.2857143 C260.39589,62.1746032 261.888788,64.6984127 263.805984,66.8571429 C265.723179,69.015873 268.064672,70.7301587 270.830462,72 C273.596253,73.2698413 276.676337,73.9047619 280.070716,73.9047619 C283.21366,73.9047619 286.058024,73.3174603 288.603808,72.1428571 C291.149592,70.968254 293.239649,69.2698413 294.87398,67.047619 L294.87398,67.047619 L295.062557,67.047619 L295.062557,70.3809524 C295.062557,72.6666667 294.826836,74.7619048 294.355394,76.6666667 C293.883953,78.5714286 293.098217,80.2222222 291.998187,81.6190476 C290.898157,83.015873 289.420973,84.1111111 287.566636,84.9047619 C285.7123,85.6984127 283.433666,86.0952381 280.730734,86.0952381 C277.902085,86.0952381 275.104866,85.5396825 272.339075,84.4285714 C269.573285,83.3174603 267.09036,81.7142857 264.890299,79.6190476 L264.890299,79.6190476 L258.384406,88.4761905 C259.83016,89.6825397 261.464491,90.7619048 263.287398,91.7142857 C265.110305,92.6666667 267.011786,93.4603175 268.99184,94.0952381 C270.971895,94.7301587 272.983379,95.2063492 275.026292,95.5238095 C277.069205,95.8412698 279.002115,96 280.825023,96 Z M282.145059,64.4761905 C280.133575,64.4761905 278.326383,64.0634921 276.723481,63.2380952 C275.12058,62.4126984 273.769115,61.3174603 272.669084,59.952381 C271.569054,58.5873016 270.720459,57.047619 270.1233,55.3333333 C269.526141,53.6190476 269.227561,51.8412698 269.227561,50 C269.227561,47.968254 269.526141,46.0634921 270.1233,44.2857143 C270.720459,42.5079365 271.569054,40.968254 272.669084,39.6666667 C273.769115,38.3650794 275.12058,37.3333333 276.723481,36.5714286 C278.326383,35.8095238 280.165005,35.4285714 282.239347,35.4285714 C284.31369,35.4285714 286.168027,35.8095238 287.802357,36.5714286 C289.436688,37.3333333 290.835298,38.3809524 291.998187,39.7142857 C293.161076,41.047619 294.056815,42.6031746 294.685403,44.3809524 C295.313992,46.1587302 295.628286,48.031746 295.628286,50 C295.628286,51.9047619 295.313992,53.7301587 294.685403,55.4761905 C294.056815,57.2222222 293.161076,58.7619048 291.998187,60.0952381 C290.835298,61.4285714 289.420973,62.4920635 287.755213,63.2857143 C286.089453,64.0793651 284.219402,64.4761905 282.145059,64.4761905 Z M326.000907,18.7619048 C328.075249,18.7619048 329.819583,18.1111111 331.233908,16.8095238 C332.648232,15.5079365 333.355394,13.8730159 333.355394,11.9047619 C333.355394,9.93650794 332.648232,8.3015873 331.233908,7 C329.819583,5.6984127 328.075249,5.04761905 326.000907,5.04761905 C323.926564,5.04761905 322.21366,5.73015873 320.862194,7.0952381 C319.510728,8.46031746 318.834995,10.0634921 318.834995,11.9047619 C318.834995,13.7460317 319.510728,15.3492063 320.862194,16.7142857 C322.21366,18.0793651 323.926564,18.7619048 326.000907,18.7619048 Z M331.752493,73.1428571 L331.752493,27.4285714 L320.437897,27.4285714 L320.437897,73.1428571 L331.752493,73.1428571 Z M367.688123,74.4761905 C371.082502,74.4761905 374.24116,73.9206349 377.164098,72.8095238 C380.087035,71.6984127 382.491387,70.1269841 384.377153,68.0952381 L384.377153,68.0952381 L377.30553,60.8571429 C376.23693,62.1904762 374.822605,63.2063492 373.062557,63.9047619 C371.302508,64.6031746 369.54246,64.952381 367.782412,64.952381 C365.64521,64.952381 363.775159,64.5238095 362.172257,63.6666667 C360.569356,62.8095238 359.233605,61.6825397 358.165005,60.2857143 C357.096404,58.8888889 356.294953,57.3174603 355.760653,55.5714286 C355.226352,53.8253968 354.959202,52.0634921 354.959202,50.2857143 C354.959202,48.5079365 355.210638,46.7460317 355.713509,45 C356.21638,43.2539683 356.986401,41.6825397 358.023572,40.2857143 C359.060743,38.8888889 360.365065,37.7619048 361.936537,36.9047619 C363.508008,36.047619 365.330916,35.6190476 367.405258,35.6190476 C369.228166,35.6190476 371.019643,36.047619 372.779692,36.9047619 C374.53974,37.7619048 375.859776,38.8253968 376.739801,40.0952381 L376.739801,40.0952381 L384.471442,33.2380952 C382.648534,31.015873 380.181324,29.2698413 377.06981,28 C373.958296,26.7301587 370.736778,26.0952381 367.405258,26.0952381 C364.073738,26.0952381 360.94651,26.6666667 358.023572,27.8095238 C355.100635,28.952381 352.539136,30.5714286 350.339075,32.6666667 C348.139015,34.7619048 346.394681,37.3015873 345.106074,40.2857143 C343.817468,43.2698413 343.173164,46.6031746 343.173164,50.2857143 C343.173164,54.0952381 343.817468,57.4920635 345.106074,60.4761905 C346.394681,63.4603175 348.15473,66 350.386219,68.0952381 C352.617709,70.1904762 355.226352,71.7777778 358.212149,72.8571429 C361.197945,73.9365079 364.356603,74.4761905 367.688123,74.4761905 Z M411.119674,73.1428571 L411.119674,36.5714286 L421.585675,36.5714286 L421.585675,27.4285714 L411.119674,27.4285714 L411.119674,20 C411.119674,18.8571429 411.213962,17.6825397 411.402539,16.4761905 C411.591115,15.2698413 411.952554,14.1587302 412.486854,13.1428571 C413.021154,12.1269841 413.791176,11.3015873 414.796917,10.6666667 C415.802659,10.031746 417.122696,9.71428571 418.757026,9.71428571 C419.574192,9.71428571 420.344213,9.77777778 421.06709,9.9047619 C421.789967,10.031746 422.4657,10.1904762 423.094288,10.3809524 L423.094288,10.3809524 L423.848595,0.666666667 C422.968571,0.412698413 422.104261,0.238095238 421.255666,0.142857143 C420.407072,0.0476190476 419.354186,0 418.097008,0 C414.576911,0 411.653974,0.555555556 409.328196,1.66666667 C407.002418,2.77777778 405.132366,4.28571429 403.718042,6.19047619 C402.303717,8.0952381 401.297975,10.3015873 400.700816,12.8095238 C400.103657,15.3174603 399.805077,17.9365079 399.805077,20.6666667 L399.805077,20.6666667 L399.805077,27.4285714 L391.224841,27.4285714 L391.224841,36.5714286 L399.805077,36.5714286 L399.805077,73.1428571 L411.119674,73.1428571 Z M450.826836,74.4761905 C454.221215,74.4761905 457.427017,73.8730159 460.444243,72.6666667 C463.461469,71.4603175 466.070112,69.7936508 468.270172,67.6666667 C470.470233,65.5396825 472.214566,62.984127 473.503173,60 C474.79178,57.015873 475.436083,53.7142857 475.436083,50.0952381 C475.436083,46.4761905 474.79178,43.1904762 473.503173,40.2380952 C472.214566,37.2857143 470.470233,34.7619048 468.270172,32.6666667 C466.070112,30.5714286 463.461469,28.952381 460.444243,27.8095238 C457.427017,26.6666667 454.221215,26.0952381 450.826836,26.0952381 C447.432457,26.0952381 444.226655,26.6666667 441.209429,27.8095238 C438.192203,28.952381 435.58356,30.5714286 433.3835,32.6666667 C431.183439,34.7619048 429.439105,37.2857143 428.150499,40.2380952 C426.861892,43.1904762 426.217588,46.4761905 426.217588,50.0952381 C426.217588,53.7142857 426.861892,57.015873 428.150499,60 C429.439105,62.984127 431.183439,65.5396825 433.3835,67.6666667 C435.58356,69.7936508 438.192203,71.4603175 441.209429,72.6666667 C444.226655,73.8730159 447.432457,74.4761905 450.826836,74.4761905 Z M450.826836,64.952381 C448.563917,64.952381 446.615292,64.5079365 444.980961,63.6190476 C443.34663,62.7301587 441.995165,61.5873016 440.926564,60.1904762 C439.857963,58.7936508 439.056513,57.2063492 438.522212,55.4285714 C437.987912,53.6507937 437.720762,51.8730159 437.720762,50.0952381 C437.720762,48.3174603 437.987912,46.5555556 438.522212,44.8095238 C439.056513,43.0634921 439.857963,41.4920635 440.926564,40.0952381 C441.995165,38.6984127 443.34663,37.5714286 444.980961,36.7142857 C446.615292,35.8571429 448.563917,35.4285714 450.826836,35.4285714 C453.089755,35.4285714 455.03838,35.8571429 456.672711,36.7142857 C458.307041,37.5714286 459.658507,38.6984127 460.727108,40.0952381 C461.795709,41.4920635 462.597159,43.0634921 463.13146,44.8095238 C463.66576,46.5555556 463.93291,48.3174603 463.93291,50.0952381 C463.93291,51.8730159 463.66576,53.6507937 463.13146,55.4285714 C462.597159,57.2063492 461.795709,58.7936508 460.727108,60.1904762 C459.658507,61.5873016 458.307041,62.7301587 456.672711,63.6190476 C455.03838,64.5079365 453.089755,64.952381 450.826836,64.952381 Z M497.982774,73.1428571 L497.982774,48.6666667 C497.982774,47.8412698 498.139921,46.7301587 498.454216,45.3333333 C498.76851,43.9365079 499.365669,42.5714286 500.245694,41.2380952 C501.125718,39.9047619 502.351466,38.7619048 503.922937,37.8095238 C505.494409,36.8571429 507.568752,36.3809524 510.145966,36.3809524 C510.648837,36.3809524 511.167422,36.4126984 511.701723,36.4761905 C512.236023,36.5396825 512.880326,36.6666667 513.634633,36.8571429 L513.634633,36.8571429 L513.634633,26.3809524 C513.25748,26.2539683 512.817468,26.1746032 512.314597,26.1428571 C511.811726,26.1111111 511.340284,26.0952381 510.900272,26.0952381 C507.883046,26.0952381 505.242974,26.9206349 502.980054,28.5714286 C500.717135,30.2222222 498.957087,32.3809524 497.699909,35.047619 L497.699909,35.047619 L497.511333,35.047619 L497.511333,27.4285714 L486.668178,27.4285714 L486.668178,73.1428571 L497.982774,73.1428571 Z M532.598368,73.1428571 L532.598368,48 C532.598368,46.4761905 532.802659,44.968254 533.211242,43.4761905 C533.619825,41.984127 534.216984,40.6666667 535.00272,39.5238095 C535.788456,38.3809524 536.809912,37.4444444 538.06709,36.7142857 C539.324267,35.984127 540.801451,35.6190476 542.49864,35.6190476 C545.390148,35.6190476 547.511635,36.5555556 548.863101,38.4285714 C550.214566,40.3015873 550.890299,42.6666667 550.890299,45.5238095 L550.890299,45.5238095 L550.890299,73.1428571 L562.204896,73.1428571 L562.204896,48.1904762 C562.204896,46.7301587 562.393472,45.2539683 562.770626,43.7619048 C563.147779,42.2698413 563.744938,40.9206349 564.562103,39.7142857 C565.379269,38.5079365 566.41644,37.5238095 567.673617,36.7619048 C568.930795,36 570.439408,35.6190476 572.199456,35.6190476 C574.022363,35.6190476 575.483832,36 576.583862,36.7619048 C577.683892,37.5238095 578.548202,38.4920635 579.176791,39.6666667 C579.805379,40.8412698 580.213962,42.1587302 580.402539,43.6190476 C580.591115,45.0793651 580.685403,46.4761905 580.685403,47.8095238 L580.685403,47.8095238 L580.685403,73.1428571 L592,73.1428571 L592,44.5714286 C592,42.2222222 591.685706,39.9365079 591.057117,37.7142857 C590.428528,35.4920635 589.438501,33.5238095 588.087035,31.8095238 C586.73557,30.0952381 585.006951,28.7142857 582.901179,27.6666667 C580.795406,26.6190476 578.265337,26.0952381 575.31097,26.0952381 C571.916591,26.0952381 568.962224,26.8412698 566.447869,28.3333333 C563.933515,29.8253968 561.922031,31.968254 560.413418,34.7619048 C559.156241,32.1587302 557.364763,30.0634921 555.038985,28.4761905 C552.713206,26.8888889 549.790269,26.0952381 546.270172,26.0952381 C544.447265,26.0952381 542.781505,26.3333333 541.272892,26.8095238 C539.764279,27.2857143 538.428528,27.9365079 537.265639,28.7619048 C536.10275,29.5873016 535.097008,30.5079365 534.248413,31.5238095 C533.399819,32.5396825 532.724086,33.6190476 532.221215,34.7619048 L532.221215,34.7619048 L532.032638,34.7619048 L532.032638,27.4285714 L521.283772,27.4285714 L521.283772,73.1428571 L532.598368,73.1428571 Z" id="magicform-copy" fill="#FFFFFF" fill-rule="nonzero"></path>
        </g>
    </g>
</svg>